<?xml version="1.0" encoding="UTF-8" standalone="no"?>
<!-- Created with Inkscape (http://www.inkscape.org/) -->

<svg
   xmlns:dc="http://purl.org/dc/elements/1.1/"
   xmlns:cc="http://creativecommons.org/ns#"
   xmlns:rdf="http://www.w3.org/1999/02/22-rdf-syntax-ns#"
   xmlns:svg="http://www.w3.org/2000/svg"
   xmlns="http://www.w3.org/2000/svg"
   xmlns:sodipodi="http://sodipodi.sourceforge.net/DTD/sodipodi-0.dtd"
   xmlns:inkscape="http://www.inkscape.org/namespaces/inkscape"
   width="324.91455"
   height="82.186996"
   id="svg6511"
   version="1.1"
   inkscape:version="0.48.0 r9654"
   sodipodi:docname="greatwestlifeco.svg">
  <defs
     id="defs6513" />
  <sodipodi:namedview
     id="base"
     pagecolor="#ffffff"
     bordercolor="#666666"
     borderopacity="1.0"
     inkscape:pageopacity="0.0"
     inkscape:pageshadow="2"
     inkscape:zoom="1"
     inkscape:cx="83.859631"
     inkscape:cy="15.960862"
     inkscape:document-units="px"
     inkscape:current-layer="layer1"
     showgrid="false"
     inkscape:window-width="1241"
     inkscape:window-height="746"
     inkscape:window-x="-8"
     inkscape:window-y="-8"
     inkscape:window-maximized="1"
     showguides="true"
     inkscape:guide-bbox="true"
     showborder="false"
     inkscape:showpageshadow="false"
     fit-margin-top="0"
     fit-margin-left="0"
     fit-margin-right="0"
     fit-margin-bottom="0" />
  <metadata
     id="metadata6516">
    <rdf:RDF>
      <cc:Work
         rdf:about="">
        <dc:format>image/svg+xml</dc:format>
        <dc:type
           rdf:resource="http://purl.org/dc/dcmitype/StillImage" />
      </cc:Work>
    </rdf:RDF>
  </metadata>
  <g
     inkscape:label="Layer 1"
     inkscape:groupmode="layer"
     id="layer1"
     transform="translate(-223.10399,-466.14161)">
    <g
       id="g5515"
       transform="matrix(1.25,0,0,-1.25,401.47419,530.53109)" />
    <g
       id="g5523"
       transform="matrix(1.8746408,0,0,-1.87501,524.21472,533.77165)"
       style="fill:#22190a;fill-opacity:1">
      <path
         inkscape:connector-curvature="0"
         d="m 0,0 0,5.961 c 0,0.695 -0.216,0.803 -0.948,0.803 l -0.192,0.012 0,0.36 c 0.48,-0.036 0.96,-0.06 1.439,-0.06 0.48,0 0.959,0.024 1.428,0.06 l 0,-0.36 L 1.535,6.764 C 0.779,6.764 0.551,6.656 0.551,5.961 l 0,-6.944 0.036,-0.444 -0.948,0.168 -5.792,7.04 0,-5.853 c 0,-0.696 0.228,-0.803 0.984,-0.803 l 0.191,-0.013 0,-0.359 c -0.468,0.036 -0.947,0.06 -1.427,0.06 -0.479,0 -0.96,-0.024 -1.439,-0.06 l 0,0.359 0.192,0.013 c 0.732,0 0.947,0.107 0.947,0.803 l 0,6.033 c 0,0.695 -0.191,0.803 -0.863,0.815 l -0.169,0 0,0.36 c 0.349,-0.036 0.684,-0.06 1.044,-0.06 0.348,0 0.684,0.024 1.031,0.06 L 0,0"
         style="fill:#22190a;fill-opacity:1;fill-rule:nonzero;stroke:none"
         id="path5525" />
    </g>
    <path
       inkscape:connector-curvature="0"
       style="fill:#a08c39;fill-opacity:1;fill-rule:evenodd"
       class="fil1"
       d="m 231.58385,496.99863 c 7.11284,0.78869 7.1282,0.0795 7.1282,7.65979 l 0,29.64902 c 0,2.19899 0.0998,4.88327 -0.33387,7.02467 -0.58139,2.87056 -1.49472,2.73048 -3.72048,3.73771 l 0,2.13377 c 6.31848,-0.27059 12.41632,-0.4605 18.75016,-0.2859 2.8129,0.0765 16.92349,0.6735 18.58705,-0.1305 l 1.56762,-12.85777 -2.33513,-0.14401 c -0.67732,1.56765 -1.4525,5.12118 -1.92453,6.92298 -0.49694,1.90142 -0.31659,1.76912 -2.21809,2.18357 -4.99646,1.08991 -16.39197,1.31625 -20.92601,0.4797 -0.63895,-2.08007 -0.32618,-10.42671 -0.32618,-13.12447 l 0,-26.87265 c 0,-1.63291 -0.25521,-4.39591 1.32584,-5.38413 1.70963,-1.06875 4.14454,-0.5583 5.77548,-0.98625 l 0.0249,-2.22 c -5.90786,0.28589 -10.2385,0.4797 -16.12529,0.27059 -1.60983,-0.057 -3.72046,-0.3108 -5.25164,-0.24946 l -0.004,2.19512 z"
       id="path6622" />
    <path
       inkscape:connector-curvature="0"
       style="fill:#a08c39;fill-opacity:1;fill-rule:evenodd"
       class="fil1"
       d="m 277.39845,497.03959 c 7.79279,0.3856 7.10614,1.11848 7.10614,8.46811 l 0,31.13284 c 0,8.03835 0.49485,7.45706 -7.12148,8.35107 l 0,2.17937 c 1.2582,0.11701 3.83213,-0.18992 5.2476,-0.2398 5.96305,-0.21104 10.14426,-0.005 16.1188,0.27241 l 0,-2.24843 c -7.79471,-0.39712 -7.12149,-1.07434 -7.11957,-8.45084 l 0,-31.06376 c 0,-7.34197 -0.65404,-8.01153 7.11765,-8.40097 l 10e-4,-2.25227 c -7.52619,0.34149 -13.8383,0.34532 -21.3664,0.002 l 0.0153,2.25035 z"
       id="path6664" />
    <path
       inkscape:connector-curvature="0"
       style="fill:#a08c39;fill-opacity:1;fill-rule:evenodd"
       class="fil1"
       d="m 302.64769,497.05697 c 5.47037,0.4908 7.11013,-0.28773 7.12742,5.88356 l 0,36.26041 c 0,1.62617 0.17857,4.06357 -1.52456,4.93238 -1.33831,0.68268 -4.05527,0.73263 -5.58942,0.84573 l -0.0153,2.22454 10.62201,-0.41805 10.76986,0.3873 -0.005,-2.19964 c -7.21958,-0.46396 -7.12549,-0.52922 -7.12549,-7.66516 0,-4.94184 0,-9.88385 0,-14.8239 3.97268,-0.11701 8.42349,-0.49292 12.34817,-0.20521 5.43774,0.4008 5.11324,2.94366 5.14011,7.62871 l 2.48079,0 -0.002,-17.31906 -2.47887,0 c -0.0269,1.81998 0.14593,4.46454 -1.6532,5.54036 -1.67048,0.99902 -5.45309,0.87062 -7.54986,0.86492 l -8.25451,-0.10951 -0.0346,-0.92251 0.006,-14.40975 c 0,-1.01072 0.0634,-3.98694 0.39169,-4.84226 0.52803,-0.64245 12.63235,-0.4065 14.29902,-0.27614 1.01189,0.078 5.51646,0.64246 6.16162,1.16207 0.46849,0.57915 1.11749,7.22221 1.11749,7.22221 l 2.27531,0.0825 c 0.0308,-2.37605 0.23619,-6.7083 0.73349,-9.07278 0.096,-0.45453 0.649,-2.40876 0.64324,-2.63691 -7.6785,-0.90901 -18.10274,0 -26.07309,0.015 l -0.27074,0 -13.53672,-0.3261 0.002,2.18825 z"
       id="path6706" />
    <path
       inkscape:connector-curvature="0"
       style="fill:#a08c39;fill-opacity:1;fill-rule:evenodd"
       class="fil1"
       d="m 344.33552,497.02164 c 1.68378,0.33944 5.04363,-0.0405 6.30693,1.37535 1.11354,1.24876 0.81788,5.19843 0.81788,6.87108 l 0,30.78947 c 0,3.11328 0.26687,6.73113 -3.27921,8.26955 -1.18844,0.516 -2.4095,0.38939 -3.16594,0.6714 l -0.007,2.19061 c 1.38234,0.0705 3.37137,-0.1365 4.80939,-0.18794 5.13384,-0.18615 9.85108,-0.21676 15.01564,-0.084 6.65636,0.1707 13.05159,0.50836 19.72329,-0.0825 0,-2.15987 -0.0365,-4.35242 0.008,-6.50854 0.0211,-1.0071 0.10363,-1.98151 0.24574,-2.97707 0.0825,-0.5697 0.48958,-2.42086 0.45503,-2.814 l -2.37877,0 c -0.0921,0.144 -1.05596,6.01939 -1.33435,6.99574 -0.24958,0.8727 -0.094,0.91875 -0.96571,1.13549 -1.822,0.4527 -3.5173,0.71551 -5.39687,0.87857 -3.63633,0.31469 -12.79048,0.52186 -16.17913,-0.17266 -0.6259,-1.18351 -0.43199,-18.2251 -0.41663,-20.91626 4.00879,-0.0945 8.43612,-0.50265 12.40073,-0.1977 5.91526,0.4527 4.62699,3.15167 5.10122,7.62125 l 2.44596,0 0.012,-17.28521 -2.47477,-0.036 c -0.096,4.80707 -0.45886,6.11149 -5.56582,6.36273 -3.85519,0.18795 -8.02717,0 -11.91116,-0.057 -0.11323,-2.28841 -0.13633,-19.28395 0.41087,-20.2276 2.35764,-0.85367 18.19695,-0.45091 20.43366,0.9072 l 0.12477,-0.0195 0.94843,7.34119 2.29046,0 c 0.27455,-1.84727 0.18432,-4.25269 0.34559,-6.17285 0.18623,-2.20396 0.6566,-3.51226 1.08475,-5.53787 -9.78005,-0.75962 -19.95367,0.17834 -30.01211,-0.0225 -1.66072,-0.033 -3.3157,-0.078 -4.97642,-0.13651 -1.39003,-0.048 -3.63824,-0.28379 -4.91306,-0.18405 l -0.006,2.20982 z"
       id="path6766" />
    <path
       inkscape:connector-curvature="0"
       style="fill:#a08c39;fill-opacity:1;fill-rule:evenodd"
       class="fil1"
       d="m 438.64228,540.51433 -0.65982,-0.69111 c -4.21984,2.5686 -7.9122,4.13317 -12.88584,4.59583 -4.83172,0.44921 -10.32711,-0.43001 -14.65818,-2.68187 -8.59697,-4.46912 -12.50991,-13.18467 -12.49648,-22.61243 0.0135,-9.56984 4.3867,-18.10687 13.82379,-21.25906 4.60921,-1.53962 10.77594,-1.33803 15.36406,0.15359 1.96605,0.63928 4.24477,1.58377 5.86941,2.85655 1.96798,1.54345 1.25634,5.13143 1.38679,7.40822 l 2.1713,0 c 0.34141,-2.78359 0.66749,-5.70158 1.13934,-8.46792 0.11699,-0.69109 0.46802,-2.16544 0.4757,-2.76632 -0.79793,-0.46649 -6.79585,-1.8103 -8.07331,-2.07523 -2.97882,-0.62007 -5.93464,-1.08272 -8.97676,-1.25165 -5.79268,-0.32252 -11.74264,0.62198 -16.93112,3.31345 -10.17173,5.2754 -15.15882,14.97194 -14.24963,26.35591 0.88425,11.05762 7.41157,19.19919 17.81923,22.92345 8.39556,3.00436 17.54109,2.5398 25.76594,-0.68919 0.95904,-0.37626 2.65848,-1.05009 3.46793,-1.60679 0.29731,-0.20542 1.5038,-3.00247 1.64957,-3.50351 z"
       id="path6808" />
    <path
       inkscape:connector-curvature="0"
       style="fill:#a08c39;fill-opacity:1;fill-rule:evenodd"
       class="fil1"
       d="m 467.96821,496.97278 c 14.09514,-1.10955 21.46373,7.87041 22.49467,21.1435 0.96655,12.42826 -2.73386,25.03148 -16.81059,26.83853 -13.16314,1.68963 -20.74574,-9.78332 -22.28298,-21.34606 -1.6638,-12.52726 2.15167,-25.49648 16.5966,-26.63597 z m 30.60887,23.968 c 0.94352,-17.55704 -10.89869,-27.32886 -27.72771,-27.28281 -16.2261,0.0461 -27.91872,10.78467 -27.8497,27.27591 0.069,16.37381 11.09432,27.97109 27.73464,27.37258 15.15139,-0.54557 27.02815,-12.2234 27.84277,-27.36568 z"
       id="path6852" />
    <path
       inkscape:connector-curvature="0"
       style="fill:#22190a;fill-opacity:1;fill-rule:evenodd"
       class="fil1"
       d="m 238.52066,481.90881 c 0.71994,0.10111 3.51015,-0.0666 3.80171,0.66309 0.1803,0.45186 0.17518,3.68272 0.13933,4.32532 -0.0907,1.64869 -0.72122,1.88295 -2.28768,2.17735 -1.28259,0.24067 -2.8209,0.26883 -4.11755,0.1305 -4.99093,-0.53379 -8.19035,-3.80049 -9.09952,-8.66726 -0.90663,-4.85014 0.50637,-9.9691 5.29782,-12.08248 2.27872,-1.00483 5.29527,-1.15844 7.6993,-0.57857 0.97825,0.23552 2.32347,0.74241 3.15593,1.3095 1.25702,0.85507 0.75958,2.2004 0.88489,3.52016 l 0.93605,-0.003 0.73272,-5.06775 c -4.71472,-1.60264 -10.76829,-2.2465 -15.44592,-0.22657 -4.6559,2.01095 -7.13154,6.08795 -7.11365,11.13394 0.0192,5.06135 2.37975,9.18314 7.18527,11.06098 2.43087,0.94981 5.3042,1.30437 7.89622,1.05092 2.81835,-0.2752 4.80934,-1.07909 7.44228,-1.63464 -0.0333,-1.40935 -0.11773,-2.84044 -0.19055,-4.24722 -0.0703,-1.35429 -0.23401,-2.63181 1.30816,-3.02606 l -0.0166,-0.83844 -8.21207,0.012 0.001,0.98693 z"
       id="path7402" />
    <path
       inkscape:connector-curvature="0"
       style="fill:#22190a;fill-opacity:1;fill-rule:evenodd"
       class="fil1"
       d="m 270.50579,489.26976 c -0.38988,-0.29296 -1.0482,-0.1509 -1.74999,-0.84165 -0.38223,-0.37726 -4.81535,-6.27635 -5.57211,-7.2395 -0.61103,-0.77775 -1.75127,-2.12445 -2.21146,-2.92006 2.23447,-0.41581 4.49834,-1.5963 5.73317,-3.56356 1.34479,-2.14367 1.06738,-5.03059 -0.89736,-6.69966 -2.13348,-1.81125 -5.24104,-1.33665 -7.81298,-1.24964 -3.03341,0.10351 -5.98117,0.0195 -9.01202,-0.11251 l 0.0105,0.98116 c 0.63403,0.25066 2.21657,-0.084 2.85316,0.67786 0.45764,0.5487 0.3426,2.38667 0.34133,3.12211 l 0,13.98788 c 0.001,3.30136 0.29271,3.62236 -3.20344,3.79501 l -0.001,1.01297 c 1.62729,-0.072 3.20343,-0.17131 4.83838,-0.16621 1.35883,0 3.57283,0.252 4.77061,0.15091 l -0.005,-0.98746 c -2.74069,-0.25966 -3.17913,0.0825 -3.19575,-2.90342 l -0.001,-12.0935 c 0,-1.51697 -0.16491,-4.52029 0.19813,-5.85949 3.34786,-0.93885 8.1415,-0.72391 8.54161,3.66452 0.16873,1.85205 -0.52795,3.35626 -2.04913,4.41151 -1.61832,1.12172 -3.52554,1.13582 -5.41616,1.07057 -0.19046,0.7662 0.36944,1.1397 0.85775,1.7664 0.40138,0.5154 0.79895,1.03606 1.20288,1.54891 0.80788,1.02586 1.60938,2.06447 2.40576,3.09797 1.45343,1.88401 3.59586,4.31807 4.77829,6.28144 0.55862,0.039 1.61833,-0.14701 2.29965,-0.14851 0.81685,0 1.52248,0.0975 2.32524,0.16246 l -0.0268,-0.94786 z"
       id="path7444" />
    <path
       inkscape:connector-curvature="0"
       style="fill:#22190a;fill-opacity:1;fill-rule:evenodd"
       class="fil1"
       d="m 271.52222,467.67619 c 3.02142,0.24996 3.20433,0.0574 3.20433,3.20235 l 0,15.1153 c 0.001,0.84298 -0.087,1.69618 -0.68179,2.34406 -0.76751,0.8379 -1.33035,0.60705 -2.20402,0.85703 l -0.0167,0.99093 c 0.73425,-0.0229 5.86883,-0.23849 6.14386,-0.16708 3.60598,0.001 8.12786,0.47188 11.61488,0 0.10618,-0.4757 0.0135,-2.27009 0.0243,-2.89884 0.0167,-0.96796 0.19698,-1.68981 0.33003,-2.61697 l -1.08987,0.003 c -0.13812,0.34179 -0.28907,1.70767 -0.3671,2.16552 -0.27504,1.59927 -0.38761,1.42582 -1.00417,1.56227 -2.78987,0.61855 -6.47901,0.37496 -9.37889,0.2844 -0.10228,-1.12228 -0.34539,-8.89418 -0.13182,-9.41707 0.92996,-0.17855 4.52314,-0.18238 5.5452,-0.10335 2.77325,0.21425 1.98784,1.4947 2.29868,3.41152 l 1.06939,0.007 0.0358,-0.4234 -0.005,-7.34593 -1.11673,0.0135 c -0.0525,2.15021 -0.2098,2.72411 -2.49822,2.83763 -1.65269,0.0816 -3.68403,0.0408 -5.34695,-0.0306 -0.12658,-0.76137 -0.0319,-8.57662 0.18294,-9.08038 l 3.26571,-0.19385 1.12952,0.0281 c 0.99775,0 3.97822,0.12885 4.78026,0.58921 l 0.0576,-0.009 0.41958,3.27632 1.04508,0.005 c 0.0217,-0.87997 0.0743,-1.90789 0.14832,-2.77766 0.0845,-0.97819 0.30445,-1.5674 0.48226,-2.46013 -2.74256,-0.45276 -8.75082,0.0319 -11.89759,-0.005 l -6.03898,-0.14416 0,0.98075 z"
       id="path7480" />
    <path
       id="path7504"
       d="m 384.03067,467.67619 c 3.02141,0.24996 3.20433,0.0574 3.20433,3.20235 l 0,15.1153 c 10e-4,0.84298 -0.087,1.69618 -0.6818,2.34406 -0.7675,0.8379 -1.33035,0.60705 -2.20402,0.85703 l -0.0167,0.99093 c 0.73424,-0.0229 5.86883,-0.23849 6.14385,-0.16708 3.60599,0.001 8.12787,0.47188 11.61489,0 0.10617,-0.4757 0.0135,-2.27009 0.0243,-2.89884 0.0167,-0.96796 0.19698,-1.68981 0.33002,-2.61697 l -1.08985,0.003 c -0.13812,0.34179 -0.28909,1.70767 -0.36712,2.16552 -0.27503,1.59927 -0.3876,1.42582 -1.00415,1.56227 -2.78988,0.61855 -6.47901,0.37496 -9.37889,0.2844 -0.10229,-1.12228 -0.34539,-8.89418 -0.13183,-9.41707 0.92996,-0.17855 4.52315,-0.18238 5.5452,-0.10335 2.77326,0.21425 1.98784,1.4947 2.29869,3.41152 l 1.06938,0.007 0.0358,-0.4234 -0.005,-7.34593 -1.11672,0.0135 c -0.0525,2.15021 -0.2098,2.72411 -2.49823,2.83763 -1.65268,0.0816 -3.68402,0.0408 -5.34695,-0.0306 -0.12658,-0.76137 -0.0319,-8.57662 0.18294,-9.08038 l 3.26572,-0.19385 1.12952,0.0281 c 0.99774,0 3.9782,0.12885 4.78026,0.58921 l 0.0576,-0.009 0.41957,3.27632 1.04509,0.005 c 0.0217,-0.87997 0.0743,-1.90789 0.14832,-2.77766 0.0845,-0.97819 0.30444,-1.5674 0.48226,-2.46013 -2.74257,-0.45276 -8.75084,0.0319 -11.89761,-0.005 l -6.03896,-0.14416 0,0.98075 z"
       class="fil1"
       style="fill:#22190a;fill-opacity:1;fill-rule:evenodd"
       inkscape:connector-curvature="0" />
    <path
       inkscape:connector-curvature="0"
       style="fill:#22190a;fill-opacity:1;fill-rule:evenodd"
       class="fil1"
       d="m 303.68253,470.9516 4.18268,9.99892 -8.41012,0 4.22744,-9.99892 z m -11.92018,18.22626 0,1.0209 c 1.31196,-0.15014 2.56766,-0.16516 3.8873,-0.16516 1.25058,0 2.6968,0.18018 3.87194,0.15015 l 0,-0.99088 c -2.2288,-0.36033 -3.51135,0.24021 -2.41549,-2.61235 0.27364,-0.7056 1.4654,-3.67826 1.80682,-4.14367 l 9.59292,0 c 0.38362,1.26111 1.22629,2.95763 1.74801,4.21875 0.26087,0.63057 0.8644,1.65147 0.0384,2.10188 -0.74167,0.39035 -1.68663,0.42038 -2.51142,0.4504 l 0,1.02091 c 1.5025,-0.15014 2.96024,-0.16516 4.46912,-0.16516 1.43729,0 3.15461,0.21021 4.50365,0.15015 l 0,-0.99088 c -1.42961,-0.15014 -1.91425,-0.39036 -2.66358,-1.62146 -0.56901,-0.93082 -3.36557,-7.7469 -3.90775,-9.03804 -0.84907,-2.0118 -1.70835,-4.0236 -2.5651,-6.05041 -0.80559,-1.89169 -1.66745,-4.27881 -2.58556,-6.0504 -1.21095,0 -0.98717,-0.19517 -1.37207,0.82574 -0.59716,1.5614 -1.3094,3.22787 -1.99863,4.75925 -2.33621,5.16462 -4.57908,10.41928 -7.04061,15.50882 -0.74933,1.56139 -1.26207,1.41125 -2.85792,1.65148 z"
       id="path7536" />
    <path
       inkscape:connector-curvature="0"
       style="fill:#22190a;fill-opacity:1;fill-rule:evenodd"
       class="fil1"
       d="m 337.56977,466.65914 c -1.55241,-0.0435 -3.29693,0.0831 -4.87369,0.11131 -5.06713,0.0896 -9.5412,-0.0192 -14.58527,-0.12031 l 0.18828,5.49847 0.98754,-0.023 c 0.13707,-0.69321 0.20751,-1.57829 0.33943,-2.32777 0.18702,-1.05264 0.18318,-1.2202 1.35901,-1.26497 1.67923,-0.0627 3.39174,-0.13561 5.0697,-0.16114 0.30355,3.82296 0.13317,8.08846 0.13317,11.95618 0,2.01446 0.0105,4.03146 -0.003,6.0459 -0.0166,2.80231 -0.48801,2.7051 -3.20857,2.84196 l 0,1.01298 c 1.62542,-0.0768 3.20857,-0.17267 4.84041,-0.16756 1.61389,0.004 3.19449,0.13681 4.7866,0.16372 l 0,-1.00531 c -2.70904,-0.17522 -3.19064,0.005 -3.20601,-2.8445 -0.012,-2.01446 -0.001,-4.03146 -0.001,-6.0459 0,-3.84726 -0.18187,-8.16265 0.13318,-11.95747 1.72019,0.0333 3.47242,0.0947 5.19264,0.16371 1.16944,0.0474 1.13485,0.30569 1.31801,1.33019 0.13452,0.75587 0.19982,1.56548 0.33175,2.28301 l 0.97091,-0.0204 0.22798,-5.46906 z"
       id="path7574" />
    <path
       id="path7598"
       d="m 441.54485,466.65914 c -1.55241,-0.0435 -3.29694,0.0831 -4.87369,0.11131 -5.06713,0.0896 -9.5412,-0.0192 -14.58528,-0.12031 l 0.18829,5.49847 0.98754,-0.023 c 0.13707,-0.69321 0.2075,-1.57829 0.33943,-2.32777 0.18702,-1.05264 0.18318,-1.2202 1.35901,-1.26497 1.67923,-0.0627 3.39174,-0.13561 5.0697,-0.16114 0.30355,3.82296 0.13317,8.08846 0.13317,11.95618 0,2.01446 0.0105,4.03146 -0.003,6.0459 -0.0167,2.80231 -0.48801,2.7051 -3.20858,2.84196 l 0,1.01298 c 1.62543,-0.0768 3.20858,-0.17267 4.84042,-0.16756 1.61388,0.004 3.19449,0.13681 4.7866,0.16372 l 0,-1.00531 c -2.70904,-0.17522 -3.19064,0.005 -3.20602,-2.8445 -0.012,-2.01446 -9.9e-4,-4.03146 -9.9e-4,-6.0459 0,-3.84726 -0.18187,-8.16265 0.13318,-11.95747 1.72019,0.0333 3.47242,0.0947 5.19264,0.16371 1.16944,0.0474 1.13485,0.30569 1.31801,1.33019 0.13452,0.75587 0.19982,1.56548 0.33174,2.28301 l 0.97092,-0.0204 0.22798,-5.46906 z"
       class="fil1"
       style="fill:#22190a;fill-opacity:1;fill-rule:evenodd"
       inkscape:connector-curvature="0" />
    <path
       inkscape:connector-curvature="0"
       style="fill:#22190a;fill-opacity:1;fill-rule:evenodd"
       class="fil1"
       d="m 349.67975,467.66756 c 1.26859,0.11805 2.01794,-0.0432 2.47532,1.3206 0.315,0.94225 0.525,2.03125 0.74792,3.00661 l 2.81477,12.25656 c 0.21863,0.9624 1.22687,5.61184 1.40091,6.11246 l 1.63823,0 c 0.25027,-0.42439 0.65731,-1.78957 0.84859,-2.33624 0.27329,-0.78112 0.54944,-1.52344 0.85148,-2.29594 0.64582,-1.65292 5.33899,-13.64622 5.39222,-13.65198 l 6.64496,18.28416 1.67995,0 c 0.30923,-0.77395 0.58251,-2.23122 0.80114,-3.10011 0.78675,-3.126 1.71446,-5.92544 2.6508,-9.02411 l 2.74716,-8.97519 c 0.54799,-1.81403 0.68608,-1.32348 2.22074,-1.62846 l -0.0105,-0.96529 c -0.87306,-0.0676 -2.49977,0.15106 -3.51954,0.15106 -1.20673,0.001 -2.35306,-0.0921 -3.55117,-0.16688 l 0,1.00844 c 3.07078,-0.105 3.19016,0.13665 2.46671,2.91453 -0.43007,1.65003 -0.86731,3.30725 -1.28009,4.96161 -0.20425,0.8171 -2.72705,9.72901 -2.74287,9.73477 -0.18988,-0.16544 -1.5016,-4.15028 -1.70441,-4.71706 -1.11324,-3.1073 -2.22218,-6.29804 -3.35555,-9.38231 -0.30492,-0.82861 -1.46852,-4.45812 -1.60516,-4.72712 l -1.04565,0.005 c -1.26139,3.05981 -2.31711,6.29802 -3.54542,9.39525 -0.60984,1.53782 -1.22402,3.0742 -1.83241,4.61349 -0.43149,1.09043 -1.32324,3.71723 -1.84533,4.57461 -0.43007,-1.21846 -0.80402,-3.45254 -1.1075,-4.80336 -0.35958,-1.59968 -0.7278,-3.19792 -1.09313,-4.79617 -0.37252,-1.62415 -0.71195,-3.24396 -1.06291,-4.87097 -0.54655,-2.53477 -0.39553,-3.01669 2.42212,-2.90303 l 0,-1.007 c -3.02044,0.13516 -5.45118,0.1712 -8.49607,-10e-4 l -0.005,1.01276 z"
       id="path7612" />
    <path
       inkscape:connector-curvature="0"
       style="fill:#22190a;fill-opacity:1;fill-rule:evenodd"
       class="fil1"
       d="m 404.81315,489.46435 c 2.44694,0.97665 4.57444,1.48226 7.23733,1.18531 4.70222,-0.52353 8.73874,-3.45863 8.6774,-8.5275 -0.032,-2.69061 -1.37872,-4.03463 -3.8819,-4.7092 -2.26805,-0.61186 -5.09194,-0.54273 -7.19132,-1.42082 -2.33707,-0.97794 -2.96445,-3.53671 -1.81957,-5.72682 1.85022,-3.53542 6.9281,-2.97221 8.89845,-1.31972 1.11295,0.93316 0.90211,2.01733 0.94555,3.34984 l 1.08612,-0.005 0.48173,-4.63369 0.0627,0.006 c -4.43007,-1.62818 -9.4083,-2.8378 -13.02314,1.22883 -1.5921,1.79074 -2.12622,4.38791 -1.55505,6.69962 1.36339,5.5105 8.97383,2.73285 11.96256,5.35818 2.62457,2.30531 1.16789,9.30703 -6.63423,8.08844 -1.11166,-0.17407 -2.21949,-0.52481 -3.14078,-1.18529 -1.03628,-0.74242 -0.74494,-2.41028 -0.74876,-3.56485 l -1.104,0 -0.253,5.17511 z"
       id="path7648" />
    <path
       inkscape:connector-curvature="0"
       style="fill:#22190a;fill-opacity:1;fill-rule:evenodd"
       class="fil1"
       d="m 338.75434,482.62767 0.13588,0.17608 8.81828,0.005 c 0.16282,-0.29892 0.97439,-2.04813 0.9949,-2.27359 -0.17051,-0.17606 -0.13842,-0.13425 -0.41411,-0.1317 l -4.02579,10e-4 c -1.50134,0 -3.1232,-0.0582 -4.60788,0.005 l -0.89874,2.21912 z"
       id="path7688" />
    <path
       inkscape:connector-curvature="0"
       style="fill:#22190a;fill-opacity:1;fill-rule:evenodd"
       class="fil1"
       d="m 503.8362,521.26455 c 0.70398,0.26734 0.57582,1.19851 0.57518,1.82909 l 0,9.65576 c 0,2.27803 0.29077,2.55495 -2.12786,2.68478 l 10e-4,0.67536 c 2.23562,-0.11836 4.15177,-0.11326 6.38804,0 l 6.3e-4,-0.65234 c -0.51968,-0.10034 -1.52974,-0.0223 -1.89638,-0.44575 -0.32138,-0.37094 -0.2353,-1.60461 -0.2353,-2.10345 l 0,-9.34046 c 0,-0.49947 -0.0867,-1.72741 0.24549,-2.0932 0.37177,-0.40996 1.37161,-0.33257 1.88684,-0.43362 l -0.005,-0.64977 c -2.22862,0.108 -4.15052,0.1158 -6.38104,0 0.0396,0.70798 -0.23784,0.64338 0.5044,0.69965 0.31052,0.0237 0.75562,0.0653 1.04383,0.1746 z"
       id="path3027" />
    <path
       inkscape:connector-curvature="0"
       style="fill:#22190a;fill-opacity:1;fill-rule:evenodd"
       class="fil1"
       d="m 543.08419,534.0851 -0.19577,-0.18123 c -5.43122,3.36512 -12.01764,0.51219 -12.00828,-6.182 0.005,-2.84932 1.29482,-5.45903 4.13135,-6.3865 1.42583,-0.46689 3.17192,-0.41873 4.59775,0.03 0.51391,0.16189 1.37689,0.51009 1.77995,0.86055 0.59524,0.51804 0.40018,1.48362 0.42249,2.21891 l 0.65425,0 c 0.0548,-0.56696 0.13813,-1.15266 0.21664,-1.71602 0.0771,-0.55119 0.20801,-1.12684 0.27351,-1.66423 -3.49222,-0.90092 -6.75845,-1.73268 -10.18732,0 -3.06111,1.54977 -4.55818,4.50124 -4.29332,7.89516 0.25983,3.32115 2.22476,5.7582 5.33551,6.87349 2.58318,0.92673 5.21601,0.75899 7.74234,-0.20012 1.04939,-0.39863 1.18399,-0.45895 1.53018,-1.55701 z"
       id="path3067" />
    <path
       sodipodi:type="arc"
       style="color:#000000;fill:#22190a;fill-opacity:1;fill-rule:nonzero;stroke:#808000;stroke-width:0.5;stroke-linecap:butt;stroke-linejoin:miter;stroke-miterlimit:4;stroke-opacity:1;stroke-dasharray:none;stroke-dashoffset:0;marker:none;visibility:visible;display:inline;overflow:visible;enable-background:accumulate"
       id="path4527"
       sodipodi:cx="272.85715"
       sodipodi:cy="409.50504"
       sodipodi:rx="107.14286"
       sodipodi:ry="31.428572"
       d="m 380.00001,409.50504 c 0,17.35752 -47.96949,31.42857 -107.14286,31.42857 -59.17337,0 -107.14286,-14.07105 -107.14286,-31.42857 0,-17.35753 47.96949,-31.42858 107.14286,-31.42858 59.17337,0 107.14286,14.07105 107.14286,31.42858 z"
       transform="matrix(0.01217185,0,0,0.0414956,543.3902,517.81423)" />
  </g>
</svg>
